<svg xmlns="http://www.w3.org/2000/svg" viewBox="0 0 1920 991" preserveAspectRatio="xMidYMid" width="1920" height="991" xmlns:xlink="http://www.w3.org/1999/xlink" style="shape-rendering:auto;display:block;background-position-x:0%;background-position-y:0%;background-size:auto;background-origin:padding-box;background-clip:border-box;background:scroll rgb(255, 255, 255) none  repeat;width:1920px;height:991px;;animation:none"><g><g transform="matrix(1,0,0,1,0,0)" style="transform:matrix(1, 0, 0, 1, 0, 0);;animation:none"><path fill="#29b2e8" d="M-320 -304A160 160 0 0 1 0 -304A160 160 0 0 1 320 -304A160 160 0 0 1 640 -304A160 160 0 0 1 960 -304A160 160 0 0 1 1280 -304A160 160 0 0 1 1600 -304A160 160 0 0 1 1920 -304A160 160 0 0 1 2240 -304L-320 -304" transform="matrix(1,0,0,1,0,0)" style="fill:rgb(41, 178, 232);transform:matrix(1, 0, 0, 1, 0, 0);;animation:none"></path></g>
<g transform="matrix(1,0,0,1,0,7.999976634979248)" style="transform:matrix(1, 0, 0, 1, 0, 7.99998);;animation:none"><path fill="#29ace0" d="M-160 -240A160 160 0 0 1 160 -240A160 160 0 0 1 480 -240A160 160 0 0 1 800 -240A160 160 0 0 1 1120 -240A160 160 0 0 1 1440 -240A160 160 0 0 1 1760 -240A160 160 0 0 1 2080 -240A160 160 0 0 1 2400 -240L-160 -240" transform="matrix(1,0,0,1,13.132938385009766,0)" style="fill:rgb(41, 172, 224);transform:matrix(1, 0, 0, 1, 13.1329, 0);;animation:none"></path></g>
<g transform="matrix(1,0,0,1,0,16)" style="transform:matrix(1, 0, 0, 1, 0, 16);;animation:none"><path fill="#29a6d8" d="M-320 -176A160 160 0 0 1 0 -176A160 160 0 0 1 320 -176A160 160 0 0 1 640 -176A160 160 0 0 1 960 -176A160 160 0 0 1 1280 -176A160 160 0 0 1 1600 -176A160 160 0 0 1 1920 -176A160 160 0 0 1 2240 -176L-320 -176" transform="matrix(1,0,0,1,43.01777267456055,0)" style="fill:rgb(41, 166, 216);transform:matrix(1, 0, 0, 1, 43.0178, 0);;animation:none"></path></g>
<g transform="matrix(1,0,0,1,0,7.999996185302734)" style="transform:matrix(1, 0, 0, 1, 0, 8);;animation:none"><path fill="#29a1cf" d="M-160 -112A160 160 0 0 1 160 -112A160 160 0 0 1 480 -112A160 160 0 0 1 800 -112A160 160 0 0 1 1120 -112A160 160 0 0 1 1440 -112A160 160 0 0 1 1760 -112A160 160 0 0 1 2080 -112A160 160 0 0 1 2400 -112L-160 -112" transform="matrix(1,0,0,1,80,0)" style="fill:rgb(41, 161, 207);transform:matrix(1, 0, 0, 1, 80, 0);;animation:none"></path></g>
<g transform="matrix(1,0,0,1,0,0)" style="transform:matrix(1, 0, 0, 1, 0, 0);;animation:none"><path fill="#2a9bc7" d="M-320 -48A160 160 0 0 1 0 -48A160 160 0 0 1 320 -48A160 160 0 0 1 640 -48A160 160 0 0 1 960 -48A160 160 0 0 1 1280 -48A160 160 0 0 1 1600 -48A160 160 0 0 1 1920 -48A160 160 0 0 1 2240 -48L-320 -48" transform="matrix(1,0,0,1,116.98213195800781,0)" style="fill:rgb(42, 155, 199);transform:matrix(1, 0, 0, 1, 116.982, 0);;animation:none"></path></g>
<g transform="matrix(1,0,0,1,0,-7.999992370605469)" style="transform:matrix(1, 0, 0, 1, 0, -7.99999);;animation:none"><path fill="#2a95bf" d="M-160 16A160 160 0 0 1 160 16A160 160 0 0 1 480 16A160 160 0 0 1 800 16A160 160 0 0 1 1120 16A160 160 0 0 1 1440 16A160 160 0 0 1 1760 16A160 160 0 0 1 2080 16A160 160 0 0 1 2400 16L-160 16" transform="matrix(1,0,0,1,146.86700439453125,0)" style="fill:rgb(42, 149, 191);transform:matrix(1, 0, 0, 1, 146.867, 0);;animation:none"></path></g>
<g transform="matrix(1,0,0,1,0,-16)" style="transform:matrix(1, 0, 0, 1, 0, -16);;animation:none"><path fill="#2a8fb7" d="M-320 80A160 160 0 0 1 0 80A160 160 0 0 1 320 80A160 160 0 0 1 640 80A160 160 0 0 1 960 80A160 160 0 0 1 1280 80A160 160 0 0 1 1600 80A160 160 0 0 1 1920 80A160 160 0 0 1 2240 80L-320 80" transform="matrix(1,0,0,1,160,0)" style="fill:rgb(42, 143, 183);transform:matrix(1, 0, 0, 1, 160, 0);;animation:none"></path></g>
<g transform="matrix(1,0,0,1,0,-8.000015258789062)" style="transform:matrix(1, 0, 0, 1, 0, -8.00002);;animation:none"><path fill="#2a89af" d="M-160 144A160 160 0 0 1 160 144A160 160 0 0 1 480 144A160 160 0 0 1 800 144A160 160 0 0 1 1120 144A160 160 0 0 1 1440 144A160 160 0 0 1 1760 144A160 160 0 0 1 2080 144A160 160 0 0 1 2400 144L-160 144" transform="matrix(1,0,0,1,146.8670654296875,0)" style="fill:rgb(42, 137, 175);transform:matrix(1, 0, 0, 1, 146.867, 0);;animation:none"></path></g>
<g transform="matrix(1,0,0,1,0,0)" style="transform:matrix(1, 0, 0, 1, 0, 0);;animation:none"><path fill="#2a83a7" d="M-320 208A160 160 0 0 1 0 208A160 160 0 0 1 320 208A160 160 0 0 1 640 208A160 160 0 0 1 960 208A160 160 0 0 1 1280 208A160 160 0 0 1 1600 208A160 160 0 0 1 1920 208A160 160 0 0 1 2240 208L-320 208" transform="matrix(1,0,0,1,116.98221588134766,0)" style="fill:rgb(42, 131, 167);transform:matrix(1, 0, 0, 1, 116.982, 0);;animation:none"></path></g>
<g transform="matrix(1,0,0,1,0,8.000015258789062)" style="transform:matrix(1, 0, 0, 1, 0, 8.00002);;animation:none"><path fill="#2a7e9e" d="M-160 272A160 160 0 0 1 160 272A160 160 0 0 1 480 272A160 160 0 0 1 800 272A160 160 0 0 1 1120 272A160 160 0 0 1 1440 272A160 160 0 0 1 1760 272A160 160 0 0 1 2080 272A160 160 0 0 1 2400 272L-160 272" transform="matrix(1,0,0,1,80,0)" style="fill:rgb(42, 126, 158);transform:matrix(1, 0, 0, 1, 80, 0);;animation:none"></path></g>
<g transform="matrix(1,0,0,1,0,16)" style="transform:matrix(1, 0, 0, 1, 0, 16);;animation:none"><path fill="#2a7896" d="M-320 336A160 160 0 0 1 0 336A160 160 0 0 1 320 336A160 160 0 0 1 640 336A160 160 0 0 1 960 336A160 160 0 0 1 1280 336A160 160 0 0 1 1600 336A160 160 0 0 1 1920 336A160 160 0 0 1 2240 336L-320 336" transform="matrix(1,0,0,1,43.01786804199219,0)" style="fill:rgb(42, 120, 150);transform:matrix(1, 0, 0, 1, 43.0179, 0);;animation:none"></path></g>
<g transform="matrix(1,0,0,1,0,7.999996185302734)" style="transform:matrix(1, 0, 0, 1, 0, 8);;animation:none"><path fill="#2a728e" d="M-160 400A160 160 0 0 1 160 400A160 160 0 0 1 480 400A160 160 0 0 1 800 400A160 160 0 0 1 1120 400A160 160 0 0 1 1440 400A160 160 0 0 1 1760 400A160 160 0 0 1 2080 400A160 160 0 0 1 2400 400L-160 400" transform="matrix(1,0,0,1,13.132980346679688,0)" style="fill:rgb(42, 114, 142);transform:matrix(1, 0, 0, 1, 13.133, 0);;animation:none"></path></g>
<g transform="matrix(1,0,0,1,0,-1.3276572549680843e-11)" style="transform:matrix(1, 0, 0, 1, 0, -1.32766e-11);;animation:none"><path fill="#2b6c86" d="M-320 464A160 160 0 0 1 0 464A160 160 0 0 1 320 464A160 160 0 0 1 640 464A160 160 0 0 1 960 464A160 160 0 0 1 1280 464A160 160 0 0 1 1600 464A160 160 0 0 1 1920 464A160 160 0 0 1 2240 464L-320 464" transform="matrix(1,0,0,1,0,0)" style="fill:rgb(43, 108, 134);transform:matrix(1, 0, 0, 1, 0, 0);;animation:none"></path></g>
<g transform="matrix(1,0,0,1,0,-7.999992370605469)" style="transform:matrix(1, 0, 0, 1, 0, -7.99999);;animation:none"><path fill="#2b667e" d="M-160 528A160 160 0 0 1 160 528A160 160 0 0 1 480 528A160 160 0 0 1 800 528A160 160 0 0 1 1120 528A160 160 0 0 1 1440 528A160 160 0 0 1 1760 528A160 160 0 0 1 2080 528A160 160 0 0 1 2400 528L-160 528" transform="matrix(1,0,0,1,-13.132952690124512,0)" style="fill:rgb(43, 102, 126);transform:matrix(1, 0, 0, 1, -13.133, 0);;animation:none"></path></g>
<g transform="matrix(1,0,0,1,0,-16)" style="transform:matrix(1, 0, 0, 1, 0, -16);;animation:none"><path fill="#2b6076" d="M-320 592A160 160 0 0 1 0 592A160 160 0 0 1 320 592A160 160 0 0 1 640 592A160 160 0 0 1 960 592A160 160 0 0 1 1280 592A160 160 0 0 1 1600 592A160 160 0 0 1 1920 592A160 160 0 0 1 2240 592L-320 592" transform="matrix(1,0,0,1,-43.017784118652344,0)" style="fill:rgb(43, 96, 118);transform:matrix(1, 0, 0, 1, -43.0178, 0);;animation:none"></path></g>
<g transform="matrix(1,0,0,1,0,-7.999977111816406)" style="transform:matrix(1, 0, 0, 1, 0, -7.99998);;animation:none"><path fill="#2b5b6d" d="M-160 656A160 160 0 0 1 160 656A160 160 0 0 1 480 656A160 160 0 0 1 800 656A160 160 0 0 1 1120 656A160 160 0 0 1 1440 656A160 160 0 0 1 1760 656A160 160 0 0 1 2080 656A160 160 0 0 1 2400 656L-160 656" transform="matrix(1,0,0,1,-80,0)" style="fill:rgb(43, 91, 109);transform:matrix(1, 0, 0, 1, -80, 0);;animation:none"></path></g>
<g transform="matrix(1,0,0,1,0,0)" style="transform:matrix(1, 0, 0, 1, 0, 0);;animation:none"><path fill="#2b5565" d="M-320 720A160 160 0 0 1 0 720A160 160 0 0 1 320 720A160 160 0 0 1 640 720A160 160 0 0 1 960 720A160 160 0 0 1 1280 720A160 160 0 0 1 1600 720A160 160 0 0 1 1920 720A160 160 0 0 1 2240 720L-320 720" transform="matrix(1,0,0,1,-116.98216247558594,0)" style="fill:rgb(43, 85, 101);transform:matrix(1, 0, 0, 1, -116.982, 0);;animation:none"></path></g>
<g transform="matrix(1,0,0,1,0,8.000015258789062)" style="transform:matrix(1, 0, 0, 1, 0, 8.00002);;animation:none"><path fill="#2b4f5d" d="M-160 784A160 160 0 0 1 160 784A160 160 0 0 1 480 784A160 160 0 0 1 800 784A160 160 0 0 1 1120 784A160 160 0 0 1 1440 784A160 160 0 0 1 1760 784A160 160 0 0 1 2080 784A160 160 0 0 1 2400 784L-160 784" transform="matrix(1,0,0,1,-146.8670196533203,0)" style="fill:rgb(43, 79, 93);transform:matrix(1, 0, 0, 1, -146.867, 0);;animation:none"></path></g>
<g transform="matrix(1,0,0,1,0,16)" style="transform:matrix(1, 0, 0, 1, 0, 16);;animation:none"><path fill="#2b4955" d="M-320 848A160 160 0 0 1 0 848A160 160 0 0 1 320 848A160 160 0 0 1 640 848A160 160 0 0 1 960 848A160 160 0 0 1 1280 848A160 160 0 0 1 1600 848A160 160 0 0 1 1920 848A160 160 0 0 1 2240 848L-320 848" transform="matrix(1,0,0,1,-160,0)" style="fill:rgb(43, 73, 85);transform:matrix(1, 0, 0, 1, -160, 0);;animation:none"></path></g>
<g transform="matrix(1,0,0,1,0,7.999996185302734)" style="transform:matrix(1, 0, 0, 1, 0, 8);;animation:none"><path fill="#2b434d" d="M-160 912A160 160 0 0 1 160 912A160 160 0 0 1 480 912A160 160 0 0 1 800 912A160 160 0 0 1 1120 912A160 160 0 0 1 1440 912A160 160 0 0 1 1760 912A160 160 0 0 1 2080 912A160 160 0 0 1 2400 912L-160 912" transform="matrix(1,0,0,1,-146.86705017089844,0)" style="fill:rgb(43, 67, 77);transform:matrix(1, 0, 0, 1, -146.867, 0);;animation:none"></path></g>
<g transform="matrix(1,0,0,1,0,-1.3276572549680843e-11)" style="transform:matrix(1, 0, 0, 1, 0, -1.32766e-11);;animation:none"><path fill="#2c3d45" d="M-320 976A160 160 0 0 1 0 976A160 160 0 0 1 320 976A160 160 0 0 1 640 976A160 160 0 0 1 960 976A160 160 0 0 1 1280 976A160 160 0 0 1 1600 976A160 160 0 0 1 1920 976A160 160 0 0 1 2240 976L-320 976" transform="matrix(1,0,0,1,-116.98221588134766,0)" style="fill:rgb(44, 61, 69);transform:matrix(1, 0, 0, 1, -116.982, 0);;animation:none"></path></g>
<g transform="matrix(1,0,0,1,0,-8.000030517578125)" style="transform:matrix(1, 0, 0, 1, 0, -8.00003);;animation:none"><path fill="#2c383c" d="M-160 1040A160 160 0 0 1 160 1040A160 160 0 0 1 480 1040A160 160 0 0 1 800 1040A160 160 0 0 1 1120 1040A160 160 0 0 1 1440 1040A160 160 0 0 1 1760 1040A160 160 0 0 1 2080 1040A160 160 0 0 1 2400 1040L-160 1040" transform="matrix(1,0,0,1,-80,0)" style="fill:rgb(44, 56, 60);transform:matrix(1, 0, 0, 1, -80, 0);;animation:none"></path></g>
<g transform="matrix(1,0,0,1,0,-16)" style="transform:matrix(1, 0, 0, 1, 0, -16);;animation:none"><path fill="#2c3234" d="M-320 1104A160 160 0 0 1 0 1104A160 160 0 0 1 320 1104A160 160 0 0 1 640 1104A160 160 0 0 1 960 1104A160 160 0 0 1 1280 1104A160 160 0 0 1 1600 1104A160 160 0 0 1 1920 1104A160 160 0 0 1 2240 1104L-320 1104" transform="matrix(1,0,0,1,-43.01783752441406,0)" style="fill:rgb(44, 50, 52);transform:matrix(1, 0, 0, 1, -43.0178, 0);;animation:none"></path></g>
<g transform="matrix(1,0,0,1,0,-7.999977111816406)" style="transform:matrix(1, 0, 0, 1, 0, -7.99998);;animation:none"><path fill="#2c2c2c" d="M-160 1168A160 160 0 0 1 160 1168A160 160 0 0 1 480 1168A160 160 0 0 1 800 1168A160 160 0 0 1 1120 1168A160 160 0 0 1 1440 1168A160 160 0 0 1 1760 1168A160 160 0 0 1 2080 1168A160 160 0 0 1 2400 1168L-160 1168" transform="matrix(1,0,0,1,-13.132980346679688,0)" style="fill:rgb(44, 44, 44);transform:matrix(1, 0, 0, 1, -13.133, 0);;animation:none"></path></g>
<g></g></g><!-- [ldio] generated by https://loading.io --></svg>